# xmcd
#
# Track frame offsets:
# 150
# 17750
# 31882
# 49477
# 67947
# 93980
# 107537
# 122757
# 144217
# 159115
#
# Disc length: 2341 seconds
#
#
# Revision: 0
# Processed by: cddbd v1.5.1PL2 Copyright (c) Steve Scherf et al.
# Submitted via: FreeRIP 2.945 
#
DISCID=7409230a
DTITLE=力拔山河-音樂尋根之旅
DYEAR=1900
DGENRE=
TTITLE0=掀起你的蓋頭來
TTITLE1=一根扁擔
TTITLE2=阿拉木汗
TTITLE3=我的家在目咯則
TTITLE4=猜調
TTITLE5=馬車夫之戀
TTITLE6=紫竹調
TTITLE7=在那遙遠的地方
TTITLE8=沙里洪巴
TTITLE9=彌度山歌
EXTD=
EXTT0=
EXTT1=
EXTT2=
EXTT3=
EXTT4=
EXTT5=
EXTT6=
EXTT7=
EXTT8=
EXTT9=
PLAYORDER=
